<mxfile host="app.diagrams.net" agent="Mozilla/5.0 (Macintosh; Intel Mac OS X 10_15_7) AppleWebKit/537.36 (KHTML, like Gecko) Chrome/129.0.0.0 Safari/537.36" version="24.7.16">
  <diagram name="Page-1" id="9LM_DAEcHhZjmnmRIjvK">
    <mxGraphModel dx="504" dy="909" grid="1" gridSize="10" guides="1" tooltips="1" connect="1" arrows="1" fold="1" page="1" pageScale="1" pageWidth="827" pageHeight="1169" math="0" shadow="0">
      <root>
        <mxCell id="0" />
        <mxCell id="1" parent="0" />
        <mxCell id="rlhtmVJhwcXzT6t8DLxt-1" value="" style="rounded=0;whiteSpace=wrap;html=1;" vertex="1" parent="1">
          <mxGeometry x="90" y="80" width="20" height="260" as="geometry" />
        </mxCell>
        <mxCell id="rlhtmVJhwcXzT6t8DLxt-2" value="" style="rounded=0;whiteSpace=wrap;html=1;" vertex="1" parent="1">
          <mxGeometry x="450" y="80" width="20" height="260" as="geometry" />
        </mxCell>
        <mxCell id="rlhtmVJhwcXzT6t8DLxt-3" value="" style="endArrow=classic;html=1;rounded=0;exitX=0.992;exitY=0.112;exitDx=0;exitDy=0;entryX=-0.05;entryY=0.119;entryDx=0;entryDy=0;exitPerimeter=0;entryPerimeter=0;" edge="1" parent="1" source="rlhtmVJhwcXzT6t8DLxt-1" target="rlhtmVJhwcXzT6t8DLxt-2">
          <mxGeometry width="50" height="50" relative="1" as="geometry">
            <mxPoint x="190" y="400" as="sourcePoint" />
            <mxPoint x="240" y="350" as="targetPoint" />
          </mxGeometry>
        </mxCell>
        <mxCell id="rlhtmVJhwcXzT6t8DLxt-4" value="&lt;div&gt;createAntrag&lt;/div&gt;&lt;div&gt;new(id = antrag)&lt;/div&gt;" style="edgeLabel;html=1;align=center;verticalAlign=middle;resizable=0;points=[];" vertex="1" connectable="0" parent="rlhtmVJhwcXzT6t8DLxt-3">
          <mxGeometry x="-0.3" relative="1" as="geometry">
            <mxPoint x="-49" y="-20" as="offset" />
          </mxGeometry>
        </mxCell>
        <mxCell id="rlhtmVJhwcXzT6t8DLxt-5" value="" style="endArrow=classic;html=1;rounded=0;exitX=-0.05;exitY=0.227;exitDx=0;exitDy=0;entryX=1;entryY=0.5;entryDx=0;entryDy=0;exitPerimeter=0;" edge="1" parent="1" source="rlhtmVJhwcXzT6t8DLxt-2" target="rlhtmVJhwcXzT6t8DLxt-10">
          <mxGeometry width="50" height="50" relative="1" as="geometry">
            <mxPoint x="190" y="400" as="sourcePoint" />
            <mxPoint x="330" y="240" as="targetPoint" />
          </mxGeometry>
        </mxCell>
        <mxCell id="rlhtmVJhwcXzT6t8DLxt-8" value="Antrag&lt;div&gt;positiv&lt;/div&gt;" style="edgeLabel;html=1;align=center;verticalAlign=middle;resizable=0;points=[];" vertex="1" connectable="0" parent="rlhtmVJhwcXzT6t8DLxt-5">
          <mxGeometry x="-0.0889" y="1" relative="1" as="geometry">
            <mxPoint as="offset" />
          </mxGeometry>
        </mxCell>
        <mxCell id="rlhtmVJhwcXzT6t8DLxt-6" value="" style="endArrow=classic;html=1;rounded=0;exitX=-0.05;exitY=0.342;exitDx=0;exitDy=0;dashed=1;exitPerimeter=0;entryX=1;entryY=0.5;entryDx=0;entryDy=0;" edge="1" parent="1" source="rlhtmVJhwcXzT6t8DLxt-2" target="rlhtmVJhwcXzT6t8DLxt-1">
          <mxGeometry width="50" height="50" relative="1" as="geometry">
            <mxPoint x="260" y="140" as="sourcePoint" />
            <mxPoint x="110" y="240" as="targetPoint" />
            <Array as="points">
              <mxPoint x="390" y="170" />
              <mxPoint x="390" y="210" />
            </Array>
          </mxGeometry>
        </mxCell>
        <mxCell id="rlhtmVJhwcXzT6t8DLxt-7" value="Antrag wird abgelehnt" style="edgeLabel;html=1;align=center;verticalAlign=middle;resizable=0;points=[];" vertex="1" connectable="0" parent="rlhtmVJhwcXzT6t8DLxt-6">
          <mxGeometry x="0.0462" y="1" relative="1" as="geometry">
            <mxPoint x="-39" y="-1" as="offset" />
          </mxGeometry>
        </mxCell>
        <mxCell id="rlhtmVJhwcXzT6t8DLxt-10" value="Vertrag&lt;div&gt;(object)&lt;/div&gt;" style="rounded=0;whiteSpace=wrap;html=1;" vertex="1" parent="1">
          <mxGeometry x="220" y="120" width="120" height="40" as="geometry" />
        </mxCell>
        <mxCell id="rlhtmVJhwcXzT6t8DLxt-11" value="" style="endArrow=classic;html=1;rounded=0;exitX=1;exitY=0.75;exitDx=0;exitDy=0;entryX=0;entryY=0.75;entryDx=0;entryDy=0;" edge="1" parent="1" source="rlhtmVJhwcXzT6t8DLxt-1" target="rlhtmVJhwcXzT6t8DLxt-2">
          <mxGeometry width="50" height="50" relative="1" as="geometry">
            <mxPoint x="190" y="400" as="sourcePoint" />
            <mxPoint x="50" y="300" as="targetPoint" />
          </mxGeometry>
        </mxCell>
        <mxCell id="rlhtmVJhwcXzT6t8DLxt-12" value="antragKuendigung" style="text;html=1;align=center;verticalAlign=middle;resizable=0;points=[];autosize=1;strokeColor=none;fillColor=none;" vertex="1" parent="1">
          <mxGeometry x="110" y="240" width="120" height="30" as="geometry" />
        </mxCell>
        <mxCell id="rlhtmVJhwcXzT6t8DLxt-15" value="&lt;span style=&quot;color: rgb(0, 0, 0); font-family: Helvetica; font-size: 12px; font-style: normal; font-variant-ligatures: normal; font-variant-caps: normal; font-weight: 400; letter-spacing: normal; orphans: 2; text-indent: 0px; text-transform: none; widows: 2; word-spacing: 0px; -webkit-text-stroke-width: 0px; white-space: normal; background-color: rgb(251, 251, 251); text-decoration-thickness: initial; text-decoration-style: initial; text-decoration-color: initial; float: none; display: inline !important;&quot;&gt;role1:Fahrzeughalter&lt;/span&gt;" style="text;whiteSpace=wrap;html=1;align=center;" vertex="1" parent="1">
          <mxGeometry x="30" y="40" width="140" height="30" as="geometry" />
        </mxCell>
        <mxCell id="rlhtmVJhwcXzT6t8DLxt-16" value="&lt;span style=&quot;color: rgb(0, 0, 0); font-family: Helvetica; font-size: 12px; font-style: normal; font-variant-ligatures: normal; font-variant-caps: normal; font-weight: 400; letter-spacing: normal; orphans: 2; text-indent: 0px; text-transform: none; widows: 2; word-spacing: 0px; -webkit-text-stroke-width: 0px; white-space: normal; background-color: rgb(251, 251, 251); text-decoration-thickness: initial; text-decoration-style: initial; text-decoration-color: initial; float: none; display: inline !important;&quot;&gt;role2:Sachbearbeiter&lt;/span&gt;" style="text;whiteSpace=wrap;html=1;align=center;" vertex="1" parent="1">
          <mxGeometry x="360" y="40" width="140" height="20" as="geometry" />
        </mxCell>
        <mxCell id="rlhtmVJhwcXzT6t8DLxt-17" value="" style="endArrow=classic;html=1;rounded=0;exitX=0;exitY=0.888;exitDx=0;exitDy=0;exitPerimeter=0;entryX=1.15;entryY=0.885;entryDx=0;entryDy=0;entryPerimeter=0;" edge="1" parent="1" source="rlhtmVJhwcXzT6t8DLxt-2" target="rlhtmVJhwcXzT6t8DLxt-1">
          <mxGeometry width="50" height="50" relative="1" as="geometry">
            <mxPoint x="290" y="320" as="sourcePoint" />
            <mxPoint x="340" y="270" as="targetPoint" />
          </mxGeometry>
        </mxCell>
      </root>
    </mxGraphModel>
  </diagram>
</mxfile>
